<svg viewBox="0 0 102 17" width="120" class="h-4 w-auto"><path d="M8.40293 16.39C4.53293 16.39 0.87293 13.6 0.87293 8.71C0.87293 4.06 4.17293 0.789999 8.88293 0.789999C13.5329 0.789999 16.7729 3.97 16.7729 8.71V16H14.1629V12.76C13.1729 15.16 10.9829 16.39 8.40293 16.39ZM8.85293 13.75C11.9129 13.75 13.9529 11.59 13.9529 8.59C13.9529 5.59 11.9129 3.43 8.85293 3.43C5.79293 3.43 3.75293 5.59 3.75293 8.59C3.75293 11.59 5.79293 13.75 8.85293 13.75ZM27.7049 16.39C23.0249 16.39 19.7249 13.09 19.7249 8.59C19.7249 4.09 23.0249 0.789999 27.7049 0.789999C31.6349 0.789999 34.5749 3.13 35.3549 6.55H32.4749C31.7549 4.66 30.0149 3.43 27.7049 3.43C24.6449 3.43 22.6049 5.59 22.6049 8.59C22.6049 11.59 24.6449 13.75 27.7049 13.75C30.0149 13.75 31.7549 12.52 32.4749 10.63H35.3549C34.5749 14.05 31.6349 16.39 27.7049 16.39ZM45.7072 16.39C41.0272 16.39 37.7272 13.09 37.7272 8.59C37.7272 4.09 41.0272 0.789999 45.7072 0.789999C49.6372 0.789999 52.5772 3.13 53.3572 6.55H50.4772C49.7572 4.66 48.0172 3.43 45.7072 3.43C42.6472 3.43 40.6072 5.59 40.6072 8.59C40.6072 11.59 42.6472 13.75 45.7072 13.75C48.0172 13.75 49.7572 12.52 50.4772 10.63H53.3572C52.5772 14.05 49.6372 16.39 45.7072 16.39ZM63.7096 16.39C59.0296 16.39 55.7296 13.09 55.7296 8.59C55.7296 4.09 59.0296 0.789999 63.7096 0.789999C68.3896 0.789999 71.6296 4.09 71.6296 8.59V9.64H58.7296C59.1496 12.28 61.1296 13.75 63.7096 13.75C65.6296 13.75 66.9796 13.15 67.8496 11.86H70.9996C69.8596 14.62 67.1596 16.39 63.7096 16.39ZM58.8196 7.09H68.6296C68.0596 4.72 66.1096 3.43 63.7096 3.43C61.2496 3.43 59.3896 4.75 58.8196 7.09ZM80.1763 16.39C76.4563 16.39 74.1163 14.41 74.0263 11.71H76.9063C76.9663 12.94 78.1063 13.81 80.1763 13.81C82.3363 13.81 83.4463 12.88 83.4463 11.71C83.4463 10.3 81.8863 10.12 80.0263 9.88C77.4463 9.55 74.3263 9.07 74.3263 5.68C74.3263 2.77 76.6063 0.789999 80.1463 0.789999C83.6863 0.789999 85.8763 2.8 85.9363 5.35H83.1163C83.0263 4.21 81.9763 3.37 80.1763 3.37C78.2863 3.37 77.2063 4.27 77.2063 5.44C77.2063 6.85 78.7663 7 80.5963 7.24C83.1763 7.57 86.3263 8.05 86.3263 11.44C86.3263 14.44 83.8963 16.39 80.1763 16.39ZM94.9267 16.39C91.2067 16.39 88.8667 14.41 88.7767 11.71H91.6567C91.7167 12.94 92.8567 13.81 94.9267 13.81C97.0867 13.81 98.1967 12.88 98.1967 11.71C98.1967 10.3 96.6367 10.12 94.7767 9.88C92.1967 9.55 89.0767 9.07 89.0767 5.68C89.0767 2.77 91.3567 0.789999 94.8967 0.789999C98.4367 0.789999 100.627 2.8 100.687 5.35H97.8667C97.7767 4.21 96.7267 3.37 94.9267 3.37C93.0367 3.37 91.9567 4.27 91.9567 5.44C91.9567 6.85 93.5167 7 95.3467 7.24C97.9267 7.57 101.077 8.05 101.077 11.44C101.077 14.44 98.6467 16.39 94.9267 16.39Z" fill="currentColor"></path></svg>