<svg width="137" height="21" viewBox="0 0 137 21" fill="none" xmlns="http://www.w3.org/2000/svg">
<path d="M10.6129 21C14.2491 21 17.3358 19.3442 18.7311 16.1135V20.475H22.4096V10.6615C22.4096 4.28077 17.8431 0 11.2894 0C4.65105 0 0 4.40192 0 10.6615C0 17.2442 5.15844 21 10.6129 21ZM11.2471 17.4462C6.9343 17.4462 4.0591 14.5385 4.0591 10.5C4.0591 6.46154 6.9343 3.55384 11.2471 3.55384C15.5599 3.55384 18.4351 6.46154 18.4351 10.5C18.4351 14.5385 15.5599 17.4462 11.2471 17.4462Z" fill="#F0F0F0"/>
<path d="M36.9716 21C42.5106 21 46.6542 17.85 47.7536 13.2462H43.6945C42.6797 15.7904 40.2273 17.4462 36.9716 17.4462C32.6588 17.4462 29.7836 14.5385 29.7836 10.5C29.7836 6.46154 32.6588 3.55384 36.9716 3.55384C40.2273 3.55384 42.6797 5.20961 43.6945 7.75384H47.7536C46.6542 3.15 42.5106 0 36.9716 0C30.3755 0 25.7245 4.44231 25.7245 10.5C25.7245 16.5577 30.3755 21 36.9716 21Z" fill="#F0F0F0"/>
<path d="M61.4986 21C67.0376 21 71.1813 17.85 72.2806 13.2462H68.2215C67.2068 15.7904 64.7544 17.4462 61.4986 17.4462C57.1858 17.4462 54.3106 14.5385 54.3106 10.5C54.3106 6.46154 57.1858 3.55384 61.4986 3.55384C64.7544 3.55384 67.2068 5.20961 68.2215 7.75384H72.2806C71.1813 3.15 67.0376 0 61.4986 0C54.9026 0 50.2515 4.44231 50.2515 10.5C50.2515 16.5577 54.9026 21 61.4986 21Z" fill="#F0F0F0"/>
<path d="M86.0257 21C90.8882 21 94.6936 18.6173 96.3003 14.9019H91.8607C90.6345 16.6385 88.7318 17.4462 86.0257 17.4462C82.3894 17.4462 79.5988 15.4673 79.0068 11.9135H97.1882V10.5C97.1882 4.44231 92.6217 0 86.0257 0C79.4297 0 74.7786 4.44231 74.7786 10.5C74.7786 16.5577 79.4297 21 86.0257 21ZM79.1337 8.48077C79.937 5.33077 82.5585 3.55384 86.0257 3.55384C89.4083 3.55384 92.1566 5.29038 92.96 8.48077H79.1337Z" fill="#F0F0F0"/>
<path d="M108.388 21C113.631 21 117.056 18.375 117.056 14.3365C117.056 9.77307 112.617 9.12692 108.98 8.68269C106.401 8.35962 104.202 8.15769 104.202 6.25961C104.202 4.68461 105.725 3.47307 108.388 3.47307C110.925 3.47307 112.405 4.60384 112.532 6.13846H116.507C116.422 2.70577 113.335 0 108.346 0C103.357 0 100.143 2.66538 100.143 6.58269C100.143 11.1462 104.541 11.7923 108.177 12.2365C110.798 12.5596 112.997 12.8019 112.997 14.7C112.997 16.275 111.433 17.5269 108.388 17.5269C105.471 17.5269 103.864 16.3558 103.78 14.7H99.7205C99.8474 18.3346 103.145 21 108.388 21Z" fill="#F0F0F0"/>
<path d="M128.332 21C133.575 21 137 18.375 137 14.3365C137 9.77307 132.56 9.12692 128.924 8.68269C126.345 8.35962 124.146 8.15769 124.146 6.25961C124.146 4.68461 125.668 3.47307 128.332 3.47307C130.869 3.47307 132.349 4.60384 132.476 6.13846H136.45C136.366 2.70577 133.279 0 128.29 0C123.301 0 120.087 2.66538 120.087 6.58269C120.087 11.1462 124.484 11.7923 128.121 12.2365C130.742 12.5596 132.941 12.8019 132.941 14.7C132.941 16.275 131.376 17.5269 128.332 17.5269C125.415 17.5269 123.808 16.3558 123.723 14.7H119.664C119.791 18.3346 123.089 21 128.332 21Z" fill="#F0F0F0"/>
</svg>
